<?xml version="1.0" standalone="no"?>
<!DOCTYPE svg PUBLIC "-//W3C//DTD SVG 20010904//EN"
 "http://www.w3.org/TR/2001/REC-SVG-20010904/DTD/svg10.dtd">
<svg version="1.0" xmlns="http://www.w3.org/2000/svg"
 width="512.000000pt" height="512.000000pt" viewBox="0 0 512.000000 512.000000"
 preserveAspectRatio="xMidYMid meet">

<g transform="translate(0.000000,512.000000) scale(0.100000,-0.100000)"
fill="#000000" stroke="none">
<path d="M1285 4755 c-994 -241 -1172 -287 -1187 -305 -16 -20 -18 -45 -18
-212 0 -187 0 -189 25 -213 29 -30 48 -30 143 -6 l72 19 0 -499 0 -499 40 0
40 0 0 -80 0 -80 -135 0 c-131 0 -137 -1 -160 -25 l-25 -24 0 -1311 0 -1311
25 -24 24 -25 1471 0 1471 0 24 25 25 24 0 671 0 671 -25 24 -24 25 -696 0
-695 0 0 615 0 616 -25 24 -24 25 -296 0 -295 0 0 80 0 80 1400 0 1400 0 0
-80 0 -80 -1000 0 -1000 0 0 -80 0 -80 1000 0 1000 0 0 -80 0 -80 -1000 0
-1000 0 0 -80 0 -80 1000 0 1000 0 0 -80 0 -80 -1000 0 -1000 0 0 -80 0 -80
1000 0 1000 0 0 -880 0 -880 -280 0 -280 0 0 -80 0 -80 800 0 800 0 0 80 0 80
-120 0 -120 0 0 1859 0 1859 73 -19 c94 -24 113 -24 142 6 25 24 25 26 25 213
0 168 -2 192 -18 212 -15 19 -185 63 -1193 306 -645 156 -1183 283 -1194 283
-11 -1 -546 -128 -1190 -284z m2325 -151 c608 -146 1106 -267 1108 -269 2 -1
2 -36 0 -77 l-3 -74 -1117 269 -1117 270 -1088 -262 c-598 -144 -1103 -266
-1121 -271 l-32 -8 0 77 0 77 1118 271 c614 149 1124 269 1132 267 8 -2 512
-123 1120 -270z m-937 -535 c25 -11 47 -47 47 -75 0 -9 -13 -29 -29 -45 l-29
-29 -182 0 -182 0 -29 29 c-16 16 -29 36 -29 45 0 27 22 64 44 74 29 15 358
15 389 1z m1167 -789 l0 -80 -1360 0 -1360 0 0 80 0 80 1360 0 1360 0 0 -80z
m-3280 -775 c0 -216 0 -216 25 -240 l24 -25 271 0 271 0 24 25 c25 24 25 24
25 240 l0 215 160 0 160 0 0 -560 0 -560 -640 0 -640 0 0 560 0 560 160 0 160
0 0 -215z m480 55 l0 -160 -160 0 -160 0 0 160 0 160 160 0 160 0 0 -160z
m-480 -1335 c0 -216 0 -216 25 -240 l24 -25 271 0 271 0 24 25 c25 24 25 24
25 240 l0 215 160 0 160 0 0 -560 0 -560 -640 0 -640 0 0 560 0 560 160 0 160
0 0 -215z m480 55 l0 -160 -160 0 -160 0 0 160 0 160 160 0 160 0 0 -160z
m960 -55 c0 -216 0 -216 25 -240 l24 -25 271 0 271 0 24 25 c25 24 25 24 25
240 l0 215 160 0 160 0 0 -560 0 -560 -640 0 -640 0 0 560 0 560 160 0 160 0
0 -215z m480 55 l0 -160 -160 0 -160 0 0 160 0 160 160 0 160 0 0 -160z"/>
<path d="M1200 1840 l0 -80 80 0 80 0 0 80 0 80 -80 0 -80 0 0 -80z"/>
<path d="M1200 560 l0 -80 80 0 80 0 0 80 0 80 -80 0 -80 0 0 -80z"/>
<path d="M2640 560 l0 -80 80 0 80 0 0 80 0 80 -80 0 -80 0 0 -80z"/>
</g>
</svg>
